<?xml version="1.0" encoding="utf-8"?>
<!-- Generator: Adobe Illustrator 23.0.5, SVG Export Plug-In . SVG Version: 6.00 Build 0)  -->
<svg version="1.1" id="Layer_1" xmlns="http://www.w3.org/2000/svg" xmlns:xlink="http://www.w3.org/1999/xlink" x="0px" y="0px"
	 viewBox="0 0 2732 1536" style="enable-background:new 0 0 2732 1536;" xml:space="preserve">
<style type="text/css">
	.st0{clip-path:url(#SVGID_2_);fill:url(#SVGID_3_);}
	.st1{clip-path:url(#SVGID_2_);}
	.st2{opacity:0.68;fill:#FFFFFF;}
	.st3{fill:url(#SVGID_4_);}
	.st4{fill:url(#SVGID_5_);}
	.st5{opacity:0.3;fill:url(#SVGID_6_);}
	.st6{fill:url(#SVGID_7_);}
	.st7{opacity:0.48;fill:url(#SVGID_8_);}
	.st8{opacity:0.76;}
	.st9{clip-path:url(#SVGID_10_);}
	.st10{fill:#F6AAC7;}
	.st11{fill:url(#SVGID_11_);}
	.st12{fill:url(#SVGID_12_);}
	.st13{fill:url(#SVGID_13_);}
	.st14{fill:url(#SVGID_14_);}
	.st15{opacity:0.28;}
	.st16{clip-path:url(#SVGID_16_);}
	.st17{fill:#FFFFFF;}
	.st18{clip-path:url(#SVGID_18_);}
	.st19{fill:url(#SVGID_19_);}
	.st20{fill:url(#SVGID_20_);}
	.st21{fill:url(#SVGID_21_);}
	.st22{fill:url(#SVGID_22_);}
	.st23{fill:url(#SVGID_23_);}
	.st24{fill:url(#SVGID_24_);}
	.st25{fill:url(#SVGID_25_);}
	.st26{fill:url(#SVGID_26_);}
	.st27{fill:url(#SVGID_27_);}
	.st28{fill:url(#SVGID_28_);}
	.st29{fill:url(#SVGID_29_);}
	.st30{fill:url(#SVGID_30_);}
</style>
<g>
	<defs>
		<rect id="SVGID_1_" y="-100.57" width="2732" height="1821.33"/>
	</defs>
	<clipPath id="SVGID_2_">
		<use xlink:href="#SVGID_1_"  style="overflow:visible;"/>
	</clipPath>
	<linearGradient id="SVGID_3_" gradientUnits="userSpaceOnUse" x1="27.7164" y1="1260.5354" x2="1541.2491" y2="1260.5354">
		<stop  offset="0" style="stop-color:#FFC533"/>
		<stop  offset="1" style="stop-color:#F58320"/>
	</linearGradient>
	<path class="st0" d="M27.72,1515.25c0,0,338.75,71.03,617.4-136.59c278.65-207.62,464.42-240.4,814.1-147.52
		c349.68,92.88-508.13-382.46-890.59-191.23S27.72,1515.25,27.72,1515.25z"/>
	<g class="st1">
		<path class="st2" d="M-70.63,559.1c0,0,333.29-262.26,704.82-32.78c371.53,229.48,764.92,366.07,983.47,251.33
			s234.94-125.67,529.98-169.38c295.04-43.71,278.65-382.46,529.98-469.88s240.4-16.39,240.4-16.39l10.68,997.73
			c0,0-160.29-265.91-378.84-123.85s-292.95,71.35-445.93,65.88s-355.14,180.3-529.98,256.8
			c-174.84,76.49-458.95-224.01-715.75-142.06c-256.8,81.96-584.62,398.85-890.59,273.19
			c-305.97-125.67-174.84-573.69-174.84-573.69L-70.63,559.1z"/>
		<g>
			<g>
				<linearGradient id="SVGID_4_" gradientUnits="userSpaceOnUse" x1="366.1018" y1="836.8691" x2="2838.1748" y2="836.8691">
					<stop  offset="0" style="stop-color:#52C8EB"/>
					<stop  offset="0.285" style="stop-color:#76AAD5"/>
					<stop  offset="0.9376" style="stop-color:#A25BA4"/>
					<stop  offset="1" style="stop-color:#A5519F"/>
				</linearGradient>
				<path class="st3" d="M366.1,1374.26c8.75,2.1,133.43-117.76,233.25-151.86c145-49.54,309.19-154.98,460.88-78.65
					c66.79,33.61,107.14,33.73,178.46,35c64.29,1.14,105.71,40.34,158.62,72.19c124.1,74.7,250.71,99.07,389,68.46
					c119.04-26.35,182.09-125.61,241.33-227.33c28.99-49.78,60.7-106.7,112.28-135.91c48.63-27.54,97.24-12.94,150.26-13.92
					c104.53-1.93,170.44-67.17,258.86-111.64c87.76-44.14,195.23-59.54,289.12-25.74c-12.7-70.54-26.43-141.69-35.49-212.8
					c-10.89-85.38,22.62-164.22,28.24-249.11c-74.85-28.23-158.42-41.43-238.04-43.38c-172.84-4.24-242,96.15-321.82,233.42
					c-62.76,107.93-144.16,198.59-249.18,270.16c-96.08,65.48-217.57,139.25-327.97,170.07c-77.67,21.68-161.49,24.65-240.59,0.9
					c-84.28-25.3-167.57-56.68-251.8-83.14c-104.84-32.94-187.68-108.08-289.35-147.2c-107.98-41.55-187.42-3.22-258.73,77.74
					C520.28,972.73,366.1,1374.26,366.1,1374.26z"/>
				<linearGradient id="SVGID_5_" gradientUnits="userSpaceOnUse" x1="-300.1073" y1="771.2567" x2="2858.3855" y2="771.2567">
					<stop  offset="0" style="stop-color:#ED228A"/>
					<stop  offset="0.0978" style="stop-color:#ED2D88"/>
					<stop  offset="0.254" style="stop-color:#EE4284"/>
					<stop  offset="0.4491" style="stop-color:#F05B7C"/>
					<stop  offset="0.6754" style="stop-color:#F3766C"/>
					<stop  offset="0.9251" style="stop-color:#F7924B"/>
					<stop  offset="1" style="stop-color:#F89A3A"/>
				</linearGradient>
				<path class="st4" d="M-32.38,1520.71c75.15,5.35,159.1,25.17,231.55,5.47c69.04-18.78,135.54-48.14,194.24-89.27
					c67.6-47.37,110.68-123.55,175.06-167.59c149.84-102.51,366.07-402.85,574.15-213.69c34.91,31.74,76.09,83.87,121.09,101.28
					c40.06,15.49,86.51,1.15,128.14,1.09c59.68-0.07,111.86,7.52,170.16-11.22c82.93-26.66,152.32-84.01,213.64-141.61
					c68.58-64.41,105.21-131.05,203.32-145.88c71.57-10.82,92.59-63.65,123.66-125.85c32.61-65.28,73.04-126.25,103.93-192.13
					c40.1-85.56,62.12-204.17,146.34-258.78c131.29-85.14,489.91-33.26,490.04,167.63c25.31-91.57,23.46-128.38-35.3-199.49
					c-48.53-58.73-61.84-101.48-69.86-177.88c-182.21-76.27-432.94-117.01-570.71,60.99c-50.61,65.4-76.54,138.58-79.76,220.7
					c-3.13,79.91,24.43,186.36-8.18,261.75c-13.22,30.56-45.93,53.09-66.02,79.23c-32.87,42.77-55.28,60.3-107.08,80.23
					c-54.63,21.02-113.17,33.39-171.13,18.76c-29.47-7.44-48.47-18.3-79.92-15.31c-29.01,2.76-55.42,17.37-85.4,14.08
					c-117.33-12.89-166.52-150.53-236.35-227.18c-76.83-84.34-263.27-134.24-371.55-123.85
					C692.3,468.04,614.91,671.74,511.29,888.86c-64.14,134.4-270.95,364.93-441.38,330.27c-198.72-40.42-334.86,21.97-370.02,214.16
					C-201.88,1450.51-130.61,1503.49-32.38,1520.71z"/>
				<linearGradient id="SVGID_6_" gradientUnits="userSpaceOnUse" x1="1519.3138" y1="1229.0364" x2="1519.3138" y2="63.6418">
					<stop  offset="0" style="stop-color:#A53080"/>
					<stop  offset="0.1134" style="stop-color:#A8337D"/>
					<stop  offset="0.2946" style="stop-color:#B23C77"/>
					<stop  offset="0.5207" style="stop-color:#C2496B"/>
					<stop  offset="0.7804" style="stop-color:#D95A58"/>
					<stop  offset="1" style="stop-color:#F26B3D"/>
				</linearGradient>
				<path class="st5" d="M2437.22,154.78c-316.9,10.93-267.72,316.9-316.9,442.56c-49.17,125.67-10.93,191.23-185.77,202.16
					c-174.84,10.93-152.98,109.27-240.4,169.38c-295.04,136.59-251.33-21.85-704.82-131.13
					c-453.49-109.27-797.7,590.08-797.7,590.08l20.11,94.8c64.53-18.85,126.54-47.09,181.67-85.72
					c67.6-47.37,110.68-123.55,175.06-167.59c149.84-102.51,366.07-402.85,574.15-213.69c34.91,31.74,76.09,83.87,121.09,101.28
					c40.06,15.49,86.51,1.15,128.14,1.09c59.68-0.07,111.86,7.52,170.16-11.22c82.93-26.66,152.32-84.01,213.64-141.61
					c68.58-64.41,105.21-131.05,203.32-145.88c71.57-10.82,92.59-63.65,123.66-125.85c32.61-65.28,73.04-126.25,103.93-192.13
					c40.1-85.56,62.12-204.17,146.34-258.78c116.31-75.43,410.98-43.3,476.82,104.69l17.29-41.21
					C2847,346.01,2754.12,143.85,2437.22,154.78z"/>
				<linearGradient id="SVGID_7_" gradientUnits="userSpaceOnUse" x1="-228.1351" y1="782.6675" x2="3192.7107" y2="782.6675">
					<stop  offset="0" style="stop-color:#66CBE4"/>
					<stop  offset="0.0457" style="stop-color:#63BFDD"/>
					<stop  offset="0.1322" style="stop-color:#59A6CE"/>
					<stop  offset="0.2503" style="stop-color:#4D7FB6"/>
					<stop  offset="0.3939" style="stop-color:#3F529B"/>
					<stop  offset="0.4966" style="stop-color:#372E8A"/>
					<stop  offset="0.5525" style="stop-color:#3E2F8A"/>
					<stop  offset="0.639" style="stop-color:#50318C"/>
					<stop  offset="0.7452" style="stop-color:#6A3890"/>
					<stop  offset="0.867" style="stop-color:#8C4296"/>
					<stop  offset="1" style="stop-color:#B9539F"/>
				</linearGradient>
				<path class="st6" d="M-86.45,788.59c71.34-64.05,156.44-115.1,244.74-151.78c185.03-76.87,369.39-50.19,544.12,24.55
					c118.74,50.8,180.7,163.87,280.84,245.87c63.6,52.08,142.49,85.16,222.6,102.28c188.47,40.27,318.11-51.1,452.08-174.3
					c92.86-85.4,200.01-166.2,330.27-129.1c103.28,29.42,198.61,34.68,303.82,4.67c189.16-53.95,234.49-266.68,329.15-415.81
					c37.87-59.66,60.66-115.04,118.69-159.56C2819.61,74.23,2917,43.41,3015.4,28.77c6.64,40.79,8.57,102.61,31.69,138.77
					c20.24,31.66,63.26,53.37,91.72,76.46c78.86,63.98,61.86,102.7,8.67,174.97c-57.09,77.57-50.83,108.64-35.97,199.86
					c11,67.55,22,135.11,33.01,202.66c-151.01-97.14-378.93-218.24-557.22-158.36c-154.73,51.97-309.32,204.52-483.49,180.21
					c-47.44-6.62-82.29-46.41-129.65-50.47c-89.15-7.65-146.48,109.9-199.81,153.64c-91.28,74.88-219.56,174.98-347.82,197.74
					c-110.67,19.64-188.99-45.03-281.46-91.47C915.1,937.3,492.77,1068.79,395.12,1308.8c-111.73,274.62-395.8,274.22-623.26,139.48
					C-180.91,1228.38-133.68,1008.49-86.45,788.59z"/>
				<linearGradient id="SVGID_8_" gradientUnits="userSpaceOnUse" x1="-91.2386" y1="974.9991" x2="3148.6074" y2="974.9991">
					<stop  offset="0" style="stop-color:#66CBE4"/>
					<stop  offset="0.0457" style="stop-color:#63BFDD"/>
					<stop  offset="0.1322" style="stop-color:#59A6CE"/>
					<stop  offset="0.2503" style="stop-color:#4D7FB6"/>
					<stop  offset="0.3939" style="stop-color:#3F529B"/>
					<stop  offset="0.4966" style="stop-color:#372E8A"/>
					<stop  offset="0.5441" style="stop-color:#3E2E8A"/>
					<stop  offset="0.6176" style="stop-color:#502F8B"/>
					<stop  offset="0.7079" style="stop-color:#6B318D"/>
					<stop  offset="0.8114" style="stop-color:#8C3690"/>
					<stop  offset="0.9247" style="stop-color:#B83D94"/>
					<stop  offset="1" style="stop-color:#DB4498"/>
				</linearGradient>
				<path class="st7" d="M1774.35,946.52c53.33-43.75,110.66-161.3,199.81-153.64c47.36,4.07,82.2,43.85,129.65,50.47
					c174.17,24.31,328.76-128.25,483.49-180.21c178.29-59.88,406.21,61.22,557.22,158.36c-10.79-66.27-21.59-132.54-32.38-198.82
					c-14.57-89.44-23.4-127.51,36.48-205.1c-298.97-47.03-537.83,144.79-762.42,297.05c-127.74,86.61-257.62,38.01-404.82,39.21
					c-227.4,1.86-303.02,287.06-504.65,359.55c-124.19,44.65-229.34-25.91-335.23-82.18c-169.8-90.23-357.73-159.68-548.97-175.99
					C221.89,823.6,3.33,1208.29-91.24,1510.81c211.18,71.93,399.2,11.05,486.36-202.02c98.3-240.29,519.97-371.5,749.94-256.01
					c92.47,46.44,170.8,111.11,281.46,91.47C1554.79,1121.5,1683.07,1021.39,1774.35,946.52z"/>
			</g>
		</g>
	</g>
	<g class="st1">
		<g class="st8">
			<g>
				<defs>
					
						<ellipse id="SVGID_9_" transform="matrix(0.7071 -0.7071 0.7071 0.7071 -672.4851 892.1673)" cx="740.7" cy="1257.84" rx="257.39" ry="257.39"/>
				</defs>
				<clipPath id="SVGID_10_">
					<use xlink:href="#SVGID_9_"  style="overflow:visible;"/>
				</clipPath>
				<g class="st9">
					
						<rect x="707.26" y="270.84" transform="matrix(0.7071 0.7071 -0.7071 0.7071 841.5118 -241.5346)" class="st10" width="10.13" height="1248.45"/>
					
						<rect x="707.26" y="319.48" transform="matrix(0.7071 0.7071 -0.7071 0.7071 875.9052 -227.2889)" class="st10" width="10.13" height="1248.45"/>
					
						<rect x="707.26" y="368.12" transform="matrix(0.7071 0.7071 -0.7071 0.7071 910.3295 -213.0381)" class="st10" width="10.13" height="1248.45"/>
					
						<rect x="707.26" y="416.76" transform="matrix(0.7071 0.7071 -0.7071 0.7071 944.7239 -198.7914)" class="st10" width="10.13" height="1248.45"/>
					
						<rect x="707.26" y="465.4" transform="matrix(0.7071 0.7071 -0.7071 0.7071 979.1183 -184.5448)" class="st10" width="10.13" height="1248.45"/>
					
						<rect x="707.26" y="514.04" transform="matrix(0.7071 0.7071 -0.7071 0.7071 1013.4796 -170.3058)" class="st10" width="10.13" height="1248.45"/>
					
						<rect x="707.26" y="562.68" transform="matrix(0.7071 0.7071 -0.7071 0.7071 1047.873 -156.0601)" class="st10" width="10.13" height="1248.45"/>
					
						<rect x="707.26" y="611.32" transform="matrix(0.7071 0.7071 -0.7071 0.7071 1082.2316 -141.8237)" class="st10" width="10.13" height="1248.45"/>
					
						<rect x="707.26" y="659.97" transform="matrix(0.7071 0.7071 -0.7071 0.7071 1116.6241 -127.5789)" class="st10" width="10.13" height="1248.45"/>
					
						<rect x="707.26" y="708.61" transform="matrix(0.7071 0.7071 -0.7071 0.7071 1151.0537 -113.3228)" class="st10" width="10.13" height="1248.45"/>
					
						<rect x="707.26" y="757.25" transform="matrix(0.7071 0.7071 -0.7071 0.7071 1185.4471 -99.0771)" class="st10" width="10.13" height="1248.45"/>
					
						<rect x="707.26" y="805.89" transform="matrix(0.7071 0.7071 -0.7071 0.7071 1219.8793 -84.8184)" class="st10" width="10.13" height="1248.45"/>
					
						<rect x="707.26" y="854.53" transform="matrix(0.7071 0.7071 -0.7071 0.7071 1254.2737 -70.5717)" class="st10" width="10.13" height="1248.45"/>
					
						<rect x="707.26" y="903.17" transform="matrix(0.7071 0.7071 -0.7071 0.7071 1288.5876 -56.3544)" class="st10" width="10.13" height="1248.45"/>
					
						<rect x="707.26" y="951.81" transform="matrix(0.7071 0.7071 -0.7071 0.7071 1322.9802 -42.1095)" class="st10" width="10.13" height="1248.45"/>
					
						<rect x="707.26" y="1000.45" transform="matrix(0.7071 0.7071 -0.7071 0.7071 1357.4149 -27.8482)" class="st10" width="10.13" height="1248.45"/>
					
						<rect x="707.26" y="1049.09" transform="matrix(0.7071 0.7071 -0.7071 0.7071 1391.7656 -13.6197)" class="st10" width="10.13" height="1248.45"/>
				</g>
			</g>
		</g>
		<linearGradient id="SVGID_11_" gradientUnits="userSpaceOnUse" x1="2276.0398" y1="1185.0348" x2="2276.0398" y2="851.9423">
			<stop  offset="2.500000e-03" style="stop-color:#FEE7DD;stop-opacity:0"/>
			<stop  offset="1" style="stop-color:#FBC0A4"/>
		</linearGradient>
		<circle class="st11" cx="2276.04" cy="988" r="226.74"/>
		<linearGradient id="SVGID_12_" gradientUnits="userSpaceOnUse" x1="352.8081" y1="1332.2924" x2="352.8081" y2="934.9893">
			<stop  offset="2.500000e-03" style="stop-color:#FEE7DD;stop-opacity:0"/>
			<stop  offset="0.1785" style="stop-color:#FDDBCB;stop-opacity:0.1764"/>
			<stop  offset="0.4756" style="stop-color:#FCCCB5;stop-opacity:0.4743"/>
			<stop  offset="0.756" style="stop-color:#FBC3A8;stop-opacity:0.7553"/>
			<stop  offset="1" style="stop-color:#FBC0A4"/>
		</linearGradient>
		<circle class="st12" cx="352.81" cy="1097.27" r="270.45"/>
		<linearGradient id="SVGID_13_" gradientUnits="userSpaceOnUse" x1="855.4709" y1="1053.7155" x2="855.4709" y2="841.0179">
			<stop  offset="2.500000e-03" style="stop-color:#FEE7DD;stop-opacity:0"/>
			<stop  offset="0.1785" style="stop-color:#FDDBCB;stop-opacity:0.1764"/>
			<stop  offset="0.4756" style="stop-color:#FCCCB5;stop-opacity:0.4743"/>
			<stop  offset="0.756" style="stop-color:#FBC3A8;stop-opacity:0.7553"/>
			<stop  offset="1" style="stop-color:#FBC0A4"/>
		</linearGradient>
		<circle class="st13" cx="855.47" cy="927.9" r="144.79"/>
		<linearGradient id="SVGID_14_" gradientUnits="userSpaceOnUse" x1="2516.4438" y1="507.3428" x2="2516.4438" y2="294.6453">
			<stop  offset="2.500000e-03" style="stop-color:#FEE7DD;stop-opacity:0"/>
			<stop  offset="0.2747" style="stop-color:#FDEDD7;stop-opacity:0.2729"/>
			<stop  offset="0.6621" style="stop-color:#FCF5D1;stop-opacity:0.6613"/>
			<stop  offset="1" style="stop-color:#FCF9D0"/>
		</linearGradient>
		<circle class="st14" cx="2516.44" cy="381.52" r="144.79"/>
		<g class="st15">
			<g>
				<defs>
					
						<ellipse id="SVGID_15_" transform="matrix(0.7071 -0.7071 0.7071 0.7071 386.9304 2131.2378)" cx="2766.1" cy="598.55" rx="204.12" ry="204.12"/>
				</defs>
				<clipPath id="SVGID_16_">
					<use xlink:href="#SVGID_15_"  style="overflow:visible;"/>
				</clipPath>
				<g class="st16">
					
						<rect x="2739.58" y="-184.16" transform="matrix(0.7071 0.7071 -0.7071 0.7071 1023.3242 -1848.9104)" class="st17" width="8.04" height="990.04"/>
					
						<rect x="2739.58" y="-145.58" transform="matrix(0.7071 0.7071 -0.7071 0.7071 1050.5985 -1837.6135)" class="st17" width="8.04" height="990.04"/>
					
						<rect x="2739.58" y="-107.01" transform="matrix(0.7071 0.7071 -0.7071 0.7071 1077.9438 -1826.37)" class="st17" width="8.04" height="990.04"/>
					
						<rect x="2739.58" y="-68.44" transform="matrix(0.7071 0.7071 -0.7071 0.7071 1105.2191 -1815.0723)" class="st17" width="8.04" height="990.04"/>
					
						<rect x="2739.58" y="-29.87" transform="matrix(0.7071 0.7071 -0.7071 0.7071 1132.4943 -1803.7745)" class="st17" width="8.04" height="990.04"/>
					
						<rect x="2739.58" y="8.71" transform="matrix(0.7071 0.7071 -0.7071 0.7071 1159.6959 -1792.426)" class="st17" width="8.04" height="990.04"/>
					
						<rect x="2739.58" y="47.28" transform="matrix(0.7071 0.7071 -0.7071 0.7071 1186.9702 -1781.1292)" class="st17" width="8.04" height="990.04"/>
					
						<rect x="2739.58" y="85.85" transform="matrix(0.7071 0.7071 -0.7071 0.7071 1214.2445 -1769.8323)" class="st17" width="8.04" height="990.04"/>
					
						<rect x="2739.58" y="124.43" transform="matrix(0.7071 0.7071 -0.7071 0.7071 1241.5188 -1758.5354)" class="st17" width="8.04" height="990.04"/>
					
						<rect x="2739.58" y="163" transform="matrix(0.7071 0.7071 -0.7071 0.7071 1268.7932 -1747.2384)" class="st17" width="8.04" height="990.04"/>
					
						<rect x="2739.58" y="201.57" transform="matrix(0.7071 0.7071 -0.7071 0.7071 1296.0675 -1735.9415)" class="st17" width="8.04" height="990.04"/>
					
						<rect x="2739.58" y="240.15" transform="matrix(0.7071 0.7071 -0.7071 0.7071 1323.4207 -1724.6902)" class="st17" width="8.04" height="990.04"/>
					
						<rect x="2739.58" y="278.72" transform="matrix(0.7071 0.7071 -0.7071 0.7071 1350.6959 -1713.3925)" class="st17" width="8.04" height="990.04"/>
					
						<rect x="2739.58" y="317.29" transform="matrix(0.7071 0.7071 -0.7071 0.7071 1377.8906 -1702.0509)" class="st17" width="8.04" height="990.04"/>
					
						<rect x="2739.58" y="355.86" transform="matrix(0.7071 0.7071 -0.7071 0.7071 1405.1649 -1690.754)" class="st17" width="8.04" height="990.04"/>
					
						<rect x="2739.58" y="394.44" transform="matrix(0.7071 0.7071 -0.7071 0.7071 1432.4392 -1679.4572)" class="st17" width="8.04" height="990.04"/>
					
						<rect x="2739.58" y="433.01" transform="matrix(0.7071 0.7071 -0.7071 0.7071 1459.7135 -1668.1603)" class="st17" width="8.04" height="990.04"/>
				</g>
			</g>
		</g>
		<g class="st15">
			<g>
				<defs>
					
						<ellipse id="SVGID_17_" transform="matrix(0.7071 -0.7071 0.7071 0.7071 -843.329 341.3528)" cx="-9.62" cy="1188.66" rx="279.17" ry="279.17"/>
				</defs>
				<clipPath id="SVGID_18_">
					<use xlink:href="#SVGID_17_"  style="overflow:visible;"/>
				</clipPath>
				<g class="st18">
					
						<rect x="-45.89" y="118.14" transform="matrix(0.7071 0.7071 -0.7071 0.7071 550.4377 261.4507)" class="st17" width="10.99" height="1354.1"/>
					
						<rect x="-45.89" y="170.89" transform="matrix(0.7071 0.7071 -0.7071 0.7071 587.7551 276.9167)" class="st17" width="10.99" height="1354.1"/>
					
						<rect x="-45.89" y="223.65" transform="matrix(0.7071 0.7071 -0.7071 0.7071 625.0742 292.3845)" class="st17" width="10.99" height="1354.1"/>
					
						<rect x="-45.89" y="276.41" transform="matrix(0.7071 0.7071 -0.7071 0.7071 662.3649 307.8211)" class="st17" width="10.99" height="1354.1"/>
					
						<rect x="-45.89" y="329.16" transform="matrix(0.7071 0.7071 -0.7071 0.7071 699.6698 323.2733)" class="st17" width="10.99" height="1354.1"/>
					
						<rect x="-45.89" y="381.92" transform="matrix(0.7071 0.7071 -0.7071 0.7071 736.9579 338.7073)" class="st17" width="10.99" height="1354.1"/>
					
						<rect x="-45.89" y="434.68" transform="matrix(0.7071 0.7071 -0.7071 0.7071 774.2618 354.1586)" class="st17" width="10.99" height="1354.1"/>
					
						<rect x="-45.89" y="487.43" transform="matrix(0.7071 0.7071 -0.7071 0.7071 811.5657 369.6099)" class="st17" width="10.99" height="1354.1"/>
					
						<rect x="-45.89" y="540.19" transform="matrix(0.7071 0.7071 -0.7071 0.7071 848.8698 385.0612)" class="st17" width="10.99" height="1354.1"/>
					
						<rect x="-45.89" y="592.95" transform="matrix(0.7071 0.7071 -0.7071 0.7071 886.1738 400.5125)" class="st17" width="10.99" height="1354.1"/>
					
						<rect x="-45.89" y="645.71" transform="matrix(0.7071 0.7071 -0.7071 0.7071 923.4778 415.9638)" class="st17" width="10.99" height="1354.1"/>
					
						<rect x="-45.89" y="698.46" transform="matrix(0.7071 0.7071 -0.7071 0.7071 960.826 431.4621)" class="st17" width="10.99" height="1354.1"/>
					
						<rect x="-45.89" y="751.22" transform="matrix(0.7071 0.7071 -0.7071 0.7071 998.1318 446.9152)" class="st17" width="10.99" height="1354.1"/>
					
						<rect x="-45.89" y="803.98" transform="matrix(0.7071 0.7071 -0.7071 0.7071 1035.3899 462.3178)" class="st17" width="10.99" height="1354.1"/>
					
						<rect x="-45.89" y="856.73" transform="matrix(0.7071 0.7071 -0.7071 0.7071 1072.694 477.7691)" class="st17" width="10.99" height="1354.1"/>
					
						<rect x="-45.89" y="909.49" transform="matrix(0.7071 0.7071 -0.7071 0.7071 1109.9979 493.2205)" class="st17" width="10.99" height="1354.1"/>
					
						<rect x="-45.89" y="962.25" transform="matrix(0.7071 0.7071 -0.7071 0.7071 1147.3019 508.6718)" class="st17" width="10.99" height="1354.1"/>
				</g>
			</g>
		</g>
		<linearGradient id="SVGID_19_" gradientUnits="userSpaceOnUse" x1="320.8255" y1="358.5024" x2="277.1155" y2="571.588">
			<stop  offset="0" style="stop-color:#FFC533"/>
			<stop  offset="1" style="stop-color:#F58320"/>
		</linearGradient>
		<circle class="st19" cx="298.17" cy="468.94" r="68.3"/>
		<linearGradient id="SVGID_20_" gradientUnits="userSpaceOnUse" x1="2129.3191" y1="888.4838" x2="2085.6091" y2="1101.5693">
			<stop  offset="0" style="stop-color:#FFC533"/>
			<stop  offset="1" style="stop-color:#F58320"/>
		</linearGradient>
		<circle class="st20" cx="2106.66" cy="998.93" r="68.3"/>
		<linearGradient id="SVGID_21_" gradientUnits="userSpaceOnUse" x1="1969.1383" y1="995.9601" x2="1960.3964" y2="1038.577">
			<stop  offset="0" style="stop-color:#FFC533"/>
			<stop  offset="1" style="stop-color:#F58320"/>
		</linearGradient>
		<circle class="st21" cx="1964.61" cy="1018.05" r="13.66"/>
		<linearGradient id="SVGID_22_" gradientUnits="userSpaceOnUse" x1="1114.9181" y1="785.5462" x2="1083.447" y2="938.9677">
			<stop  offset="0" style="stop-color:#FFC533"/>
			<stop  offset="1" style="stop-color:#F58320"/>
		</linearGradient>
		<circle class="st22" cx="1098.61" cy="865.06" r="49.17"/>
		<linearGradient id="SVGID_23_" gradientUnits="userSpaceOnUse" x1="991.1181" y1="709.5205" x2="977.1309" y2="777.7079">
			<stop  offset="0" style="stop-color:#FFC533"/>
			<stop  offset="1" style="stop-color:#F58320"/>
		</linearGradient>
		<circle class="st23" cx="983.87" cy="744.86" r="21.85"/>
		<linearGradient id="SVGID_24_" gradientUnits="userSpaceOnUse" x1="1126.7252" y1="1202.6482" x2="1083.0153" y2="1415.7338">
			<stop  offset="0" style="stop-color:#EE377F"/>
			<stop  offset="0.1127" style="stop-color:#EE3F7D"/>
			<stop  offset="0.2928" style="stop-color:#F05179"/>
			<stop  offset="0.5177" style="stop-color:#F2696F"/>
			<stop  offset="0.7758" style="stop-color:#F5835C"/>
			<stop  offset="1" style="stop-color:#F89A3A"/>
		</linearGradient>
		<circle class="st24" cx="1104.07" cy="1313.09" r="68.3"/>
		<linearGradient id="SVGID_25_" gradientUnits="userSpaceOnUse" x1="2110.196" y1="142.6849" x2="2066.4861" y2="355.7711">
			<stop  offset="0" style="stop-color:#76C1EB"/>
			<stop  offset="1" style="stop-color:#4859A7"/>
		</linearGradient>
		<circle class="st25" cx="2087.54" cy="253.13" r="68.3"/>
		<linearGradient id="SVGID_26_" gradientUnits="userSpaceOnUse" x1="2551.8784" y1="769.155" x2="2520.4072" y2="922.5764">
			<stop  offset="0" style="stop-color:#F89A3A"/>
			<stop  offset="0.0749" style="stop-color:#F7924B"/>
			<stop  offset="0.3246" style="stop-color:#F3766C"/>
			<stop  offset="0.5509" style="stop-color:#F05B7C"/>
			<stop  offset="0.746" style="stop-color:#EE4284"/>
			<stop  offset="0.9022" style="stop-color:#ED2D88"/>
			<stop  offset="1" style="stop-color:#ED228A"/>
		</linearGradient>
		<circle class="st26" cx="2535.57" cy="848.67" r="49.17"/>
		<linearGradient id="SVGID_27_" gradientUnits="userSpaceOnUse" x1="2411.687" y1="944.4609" x2="2397.7" y2="1012.6483">
			<stop  offset="0" style="stop-color:#F89A3A"/>
			<stop  offset="0.0749" style="stop-color:#F7924B"/>
			<stop  offset="0.3246" style="stop-color:#F3766C"/>
			<stop  offset="0.5509" style="stop-color:#F05B7C"/>
			<stop  offset="0.746" style="stop-color:#EE4284"/>
			<stop  offset="0.9022" style="stop-color:#ED2D88"/>
			<stop  offset="1" style="stop-color:#ED228A"/>
		</linearGradient>
		<circle class="st27" cx="2404.44" cy="979.8" r="21.85"/>
		<linearGradient id="SVGID_28_" gradientUnits="userSpaceOnUse" x1="2082.0244" y1="30.7392" x2="2061.0435" y2="133.0203">
			<stop  offset="0" style="stop-color:#76C1EB"/>
			<stop  offset="1" style="stop-color:#4859A7"/>
		</linearGradient>
		<circle class="st28" cx="2071.15" cy="83.75" r="32.78"/>
		<linearGradient id="SVGID_29_" gradientUnits="userSpaceOnUse" x1="1298.8992" y1="1230.6666" x2="1281.4152" y2="1315.9012">
			<stop  offset="0" style="stop-color:#EE377F"/>
			<stop  offset="0.1127" style="stop-color:#EE3F7D"/>
			<stop  offset="0.2928" style="stop-color:#F05179"/>
			<stop  offset="0.5177" style="stop-color:#F2696F"/>
			<stop  offset="0.7758" style="stop-color:#F5835C"/>
			<stop  offset="1" style="stop-color:#F89A3A"/>
		</linearGradient>
		<circle class="st29" cx="1289.84" cy="1274.84" r="27.32"/>
		<linearGradient id="SVGID_30_" gradientUnits="userSpaceOnUse" x1="412.8693" y1="322.642" x2="397.1336" y2="399.3532">
			<stop  offset="0" style="stop-color:#FFC533"/>
			<stop  offset="1" style="stop-color:#F58320"/>
		</linearGradient>
		<circle class="st30" cx="404.71" cy="362.4" r="24.59"/>
	</g>
</g>
</svg>
