<?xml version="1.0" encoding="utf-8"?>
<!-- Generator: Adobe Illustrator 23.0.5, SVG Export Plug-In . SVG Version: 6.00 Build 0)  -->
<svg version="1.1" id="Layer_1" xmlns="http://www.w3.org/2000/svg" xmlns:xlink="http://www.w3.org/1999/xlink" x="0px" y="0px"
	 viewBox="0 0 581 369" style="enable-background:new 0 0 581 369;" xml:space="preserve">
<style type="text/css">
	.st0{fill:none;}
	.st1{fill:#FEE2E2;}
	.st2{fill:none;stroke:#100E3A;stroke-linecap:round;stroke-linejoin:round;stroke-miterlimit:10;}
	.st3{fill:#EF4444;}
</style>
<g id="BACKGROUND">
</g>
<g id="Capa_4">
</g>
<g>
	<g>
		<g>
			<path class="st0" d="M279.8,186L279.8,186"/>
		</g>
	</g>
</g>
<g>
	<g>
		<g>
			<path class="st0" d="M279.8,186L279.8,186"/>
		</g>
	</g>
</g>
<g>
	<path class="st1" d="M373,341.8L103.9,238.3c-12.1-4.7-18.2-18.3-13.5-30.5L156.2,37c4.7-12.1,18.3-18.2,30.5-13.5l269,103.5
		c12.1,4.7,18.2,18.3,13.5,30.5l-65.7,170.9C398.8,340.4,385.2,346.5,373,341.8z"/>
	<g>
		<path class="st2" d="M179.5,40.2c0,0,82.4,144.3,99.9,150.8c19.2,7.1,173-45.8,173-45.8"/>
		<line class="st2" x1="122.9" y1="187.4" x2="248.2" y2="158.3"/>
		<line class="st2" x1="395.1" y1="293" x2="322.1" y2="187"/>
	</g>
</g>
<path class="st3" d="M432.8,47.8c-49.8,0-90.1,40.3-90.1,90.1s40.3,90.1,90.1,90.1s90.1-40.3,90.1-90.1S482.6,47.8,432.8,47.8z
	 M484.2,86.5c26.6,26.6,28,68,5.8,96.2l-102-102C416.2,58.5,457.6,59.9,484.2,86.5L484.2,86.5z M381.4,189.2
	c-26.6-26.6-28-68-5.8-96.2l102,102C449.5,217.2,408,215.8,381.4,189.2L381.4,189.2z"/>
</svg>
