<?xml version="1.0" encoding="utf-8"?>
<!-- Generator: Adobe Illustrator 23.0.5, SVG Export Plug-In . SVG Version: 6.00 Build 0)  -->
<svg version="1.1" xmlns="http://www.w3.org/2000/svg" xmlns:xlink="http://www.w3.org/1999/xlink" x="0px" y="0px"
	 viewBox="0 0 580.99 369" style="enable-background:new 0 0 580.99 369;" xml:space="preserve">
<style type="text/css">
	.st0{fill:none;stroke:#F7A9A0;stroke-width:0;stroke-linecap:round;stroke-linejoin:round;}
	.st1{fill:#FFFFFF;stroke:#D9D9FC;stroke-miterlimit:10;}
	.st2{fill:#FF9CBD;}
	.st3{fill:#D9D9FC;}
	.st4{fill:#FFC727;}
	.st5{fill:none;stroke:#D9D9FC;stroke-miterlimit:10;}
	.st6{fill:none;}
	.st7{clip-path:url(#SVGID_2_);}
	.st8{fill:#EB9481;}
	.st9{fill:#100E3A;}
	.st10{fill:#2563EB;}
	.st11{fill:#FF9BBC;}
	.st12{opacity:0.2;fill:#100E3A;}
	.st13{fill:#DC6A57;}
	.st14{fill:#FFFFFF;}
	.st15{clip-path:url(#SVGID_4_);}
	.st16{fill:#FFC627;}
	.st17{fill:none;stroke:#100E3A;stroke-linecap:round;stroke-linejoin:round;stroke-miterlimit:10;}
	.st18{fill:#474798;}
</style>
<g id="BACKGROUND">
</g>
<g id="OBJECTS">
	<g id="Capa_4">
	</g>
	<g>
		<g>
			<g>
				<path class="st0" d="M531.23,234.8C531.23,234.81,531.23,234.8,531.23,234.8"/>
			</g>
		</g>
	</g>
	<g>
		<g>
			<rect x="383.16" y="152.67" class="st1" width="197.83" height="197.83"/>
			<g>
				<path class="st2" d="M400.07,161.59c0,2.23-1.8,4.03-4.03,4.03c-2.23,0-4.03-1.8-4.03-4.03c0-2.23,1.8-4.03,4.03-4.03
					C398.26,157.56,400.07,159.37,400.07,161.59z"/>
				<path class="st3" d="M416.53,161.59c0,2.23-1.8,4.03-4.03,4.03c-2.23,0-4.03-1.8-4.03-4.03c0-2.23,1.8-4.03,4.03-4.03
					C414.72,157.56,416.53,159.37,416.53,161.59z"/>
				<path class="st4" d="M432.98,161.59c0,2.23-1.8,4.03-4.03,4.03s-4.03-1.8-4.03-4.03c0-2.23,1.8-4.03,4.03-4.03
					S432.98,159.37,432.98,161.59z"/>
			</g>
			<line class="st5" x1="383.16" y1="170.43" x2="580.99" y2="170.43"/>
		</g>
		<g>
			<g>
				<g>
					<path class="st6" d="M531.23,234.8C531.23,234.81,531.23,234.8,531.23,234.8"/>
				</g>
			</g>
		</g>
		<g>
			<defs>
				<path id="SVGID_1_" d="M580.99,152.66V350.5h-10.14c-11.94,11.79-67.12,16.06-67.12,16.06l-0.94-5.14
					c-4.5,0.06-7.71,0.05-10.16,0.07h-0.16c-1.37,0.04-2.57-0.01-3.65-0.12c0.36,0.55,0.43,1.26,0.07,2.15
					c-0.99,2.5-9.38,5.96-15.59,5.45c-3.87-0.33-6.37-2.97-6.69-3.33c-0.02,0.05-0.08,0.08-0.15,0.08c-0.46,0.49-2.39,2.28-6.1,1.44
					c-3.55-0.8-4.35-4.03-4.35-4.03s0,0.01-0.01,0.01c-0.22,0.11-2.71,1.44-5.83,0.2c-2.63-1.04-3.51-4.38-3.51-4.38
					s-0.02,0-0.05-0.01c-0.03,0.07-0.15,0.07-0.18-0.02c-1.11-0.12-5.9-0.99-6.48-5.82c-0.1-0.83-0.1-1.7,0-2.59h-56.78v-57.74
					c-0.91-0.46-1.74-0.87-2.48-1.27l-0.01,0.02c-0.1-0.06-0.24-0.15-0.39-0.24c-1.35-0.73-2.34-1.33-2.89-1.75
					c-0.02-0.02-0.05-0.04-0.08-0.05c-6.09-3.74-17.85-11.07-21.06-14.14c-4.05-3.86-14.9-15.82-12.26-19.22
					c2.53-3.27,5.81-0.42,6.07-0.18c-0.24-0.38-3.65-5.87-0.79-8.95c2.97-3.18,8.19,2.04,8.19,2.04s-3.46-6.21-0.27-9.18
					c2.92-2.71,6.83,2.2,7.47,3.05c-0.47-0.82-3.02-5.53,0.32-6.75c3.41-1.26,7.3,5.09,11.12,9.81c0.04-0.47,0.18-0.93,0.42-1.38
					c0.7-1.33,3.33-1.2,6.64-0.32v-91.61H580.99z"/>
			</defs>
			<clipPath id="SVGID_2_">
				<use xlink:href="#SVGID_1_"  style="overflow:visible;"/>
			</clipPath>
			<g class="st7">
				<g>
					<path class="st8" d="M518.48,263.28c-6.01,9.74-35.7,45.32-68.2,47.78c-24.68,1.87-69.55-18.38-73.16-21.75
						c-9.88-9.25,3.43-34.71,11.35-33.86c9.88,1.06,47.38,16.75,62.83,16.73c11.8-0.02,39.54-15.61,58.68-23.67
						C521.11,243.82,523.11,255.78,518.48,263.28z"/>
					<g>
						<path class="st8" d="M380.67,291.51c-2.74-1.66-20.37-12.32-24.42-16.18c-4.05-3.86-14.91-15.82-12.26-19.22
							c2.64-3.4,6.1-0.16,6.1-0.16s-3.78-5.78-0.81-8.96c2.97-3.18,8.18,2.04,8.18,2.04s-3.45-6.21-0.26-9.18
							c3.19-2.96,7.55,3.17,7.55,3.17s-3.42-5.53,0.23-6.87c4.4-1.61,9.56,9.31,14.35,13.24c1.09,0.89,23.35,16.51,23.35,16.51
							L380.67,291.51z"/>
						<g>
							<path class="st9" d="M363.99,243.23c3.81,8.02,6.87,10.87,14.25,15.54c0.14,0.09,0.04,0.33-0.12,0.24
								c-7.65-3.92-12-6.94-14.53-15.62C363.47,242.97,363.81,242.85,363.99,243.23z"/>
							<path class="st9" d="M356.79,249.11c4.69,7.98,7.97,11.1,15.35,16.56c0.1,0.08-0.02,0.26-0.13,0.19
								c-7.68-4.75-11.95-7.87-15.59-16.46C356.26,249.02,356.58,248.75,356.79,249.11z"/>
							<path class="st9" d="M350.09,256.94c5.09,7.4,8.55,10.98,16.39,15.36c0.19,0.1,0.05,0.38-0.14,0.3
								c-8.43-3.69-12.78-8.12-16.46-15.48C349.63,256.61,349.77,256.47,350.09,256.94z"/>
						</g>
					</g>
					<g>
						<path class="st8" d="M409.82,265.3c0,0-6.07-9.33-9.63-12.83c-3.57-3.51-21.68-11.69-23.67-7.88
							c-2.57,4.92,6.96,11.7,12.05,14.42c0,0-5.95,11.38-0.17,17.72S409.82,265.3,409.82,265.3z"/>
						<path class="st9" d="M376.25,246.17c0.89,6.18,7.82,9.31,12.57,12.31c0.36,0.23,0.3,0.6,0.08,0.84
							c-2.18,4.94-3.81,12.53-0.85,17.39c0.09,0.14-0.1,0.29-0.21,0.15c-3.88-4.78-2.89-12.38-0.16-17.63
							c-4.92-3-11.72-6.44-11.49-13.06C376.19,246.14,376.25,246.13,376.25,246.17z"/>
					</g>
					<path class="st10" d="M518.48,266.11c-4.55,6.16-19.61,24-36.77,35.63c-7.69,5.21-15.8,9.17-23.59,10.27
						c-15.32,2.18-45.87-2.24-54.87-7.08l16.23-44.1c0,0,22.14,10.36,31.28,10.06c9.14-0.32,46.83-19.07,60.46-23.45
						c5.8-1.87,9.18-0.36,10.63,2.66C523.79,254.17,522.27,261,518.48,266.11z"/>
					<path class="st9" d="M518.48,266.11c-4.55,6.16-19.61,24-36.77,35.63l40.14-51.63C523.79,254.17,522.27,261,518.48,266.11z"/>
				</g>
				<g>
					<g>
						<path class="st10" d="M572.06,339.63c-1.86,1.05-18.47,14.33-38.76,15.05c-1.2,0.04-2.4,0.04-3.59-0.03
							c-1.68-0.07-3.36-0.26-5.02-0.58c-22.84-4.28-32.1-10.23-35.01-13.55c-2.92-3.32,8.91-56.34,11.6-67.04
							c2.69-10.7,10.93-27.15,13.46-27.47c2.52-0.34,19.5-2.38,24.71,0.11c1.17,0.57,2.3,1.33,3.41,2.3
							c8.95,7.74,15.36,27.11,18.05,36.58C564.6,298.08,574.17,338.44,572.06,339.63z"/>
					</g>
					<g>
						<path class="st9" d="M499.3,280.49c0.15-1.94,0.32-3.88,0.37-5.83c0-0.11,0.16-0.11,0.17,0c0.04,1.11,0.06,2.23,0.05,3.35
							c0.7-3,1.39-6,2.12-8.99c0.04-0.16,0.28-0.1,0.25,0.06c-0.36,1.97-1.94,13.67-3.97,19.54c-0.11,0.32-0.57,0.2-0.51-0.13
							C499.09,281.3,498.57,283.63,499.3,280.49z"/>
					</g>
					<path class="st9" d="M572.06,339.63c-1.86,1.05-18.47,14.33-38.76,15.05c-1.2,0.04-2.4,0.04-3.59-0.03l13.15-106.24
						c8.95,7.74,15.36,27.11,18.05,36.58C564.6,298.08,574.17,338.44,572.06,339.63z"/>
				</g>
				<g>
					<g>
						<g>
							<path class="st8" d="M518.73,257.16c4.81,1.58,13.88-5.2,17.73-10.99c0.26-0.4,0-4.85-0.06-10.27
								c-0.02-3.29,0.02-6.95,0.31-10.29c0.06-0.69-2.38,0.37-2.38,0.37l-4.41,0.67l-14.59,2.24c0,0,1.46,7.18,0.92,12.99
								c-0.05,0.49-0.14,0.93-0.26,1.36c-0.01,0.06-0.04,0.14-0.05,0.22C515.29,246.05,514.08,255.63,518.73,257.16z"/>
						</g>
						<path class="st9" d="M515.99,243.26c-0.01,0.06-0.04,0.14-0.05,0.22c0.65,0.15,1.36,0.25,2.14,0.3
							c14.13,0.9,17.43-16.88,17.43-16.88l-5.59-0.24l-14.59,2.24c0,0,1.46,7.18,0.92,12.99
							C516.2,242.39,516.12,242.84,515.99,243.26z"/>
					</g>
					<g>
						<g>
							<path class="st8" d="M537.36,223.53c-1.94,5.24-4.35,9.72-6.69,11.43c-8.37,6.12-20.94,5.46-25.87-4.33
								c-1.67-3.34-1.71-8.87-0.77-14.79v-0.01c1.72-10.94,6.76-23.23,10.88-25.65c9.34-5.48,24.03,0.62,26.22,11.93
								C542,206.62,540.19,215.88,537.36,223.53z"/>
						</g>
						<path class="st0" d="M531.23,234.8C531.23,234.81,531.23,234.8,531.23,234.8"/>
						<g>
							<g>
								<path class="st9" d="M520.37,211.64c0.03-0.05,0.09,0.1,0.07,0.16c-0.52,1.38-0.88,3.05,0.22,3.94
									c0.03,0.03,0.01,0.1-0.04,0.07C519.15,215.07,519.65,212.86,520.37,211.64z"/>
								<path class="st9" d="M522.11,210.61c2.3,0.59,0.95,5.16-1.19,4.61C518.82,214.67,520.18,210.11,522.11,210.61z"/>
							</g>
							<g>
								<path class="st9" d="M511.75,208.87c0.01-0.06-0.13,0.03-0.15,0.09c-0.38,1.43-1.05,3-2.46,3.09
									c-0.04,0-0.06,0.07-0.01,0.08C510.76,212.38,511.63,210.28,511.75,208.87z"/>
								<path class="st9" d="M510.93,207.02c-2.22-0.85-3.76,3.66-1.7,4.44C511.26,212.24,512.79,207.73,510.93,207.02z"/>
							</g>
							<path class="st9" d="M524.53,209.06c-0.57-0.34-1.05-0.75-1.58-1.15c-0.6-0.45-1.13-0.74-1.39-1.48
								c-0.14-0.4,0.13-0.95,0.5-1.12c0.86-0.4,1.74-0.04,2.48,0.47c0.81,0.55,1.29,1.18,1.57,2.12
								C526.39,208.81,525.29,209.51,524.53,209.06z"/>
							<path class="st9" d="M509.85,204.2c0.66,0.08,1.29,0.05,1.95,0.07c0.75,0.02,1.34,0.11,2-0.31c0.35-0.22,0.48-0.83,0.29-1.19
								c-0.43-0.85-1.35-1.1-2.25-1.16c-0.98-0.06-1.75,0.14-2.55,0.7C508.54,202.86,508.98,204.09,509.85,204.2z"/>
							<path class="st9" d="M518.64,224.77c-0.39,0.3-0.8,0.73-1.33,0.72c-0.51-0.02-1.09-0.32-1.53-0.55
								c-0.04-0.02-0.1,0.02-0.07,0.07c0.31,0.61,1.07,1.05,1.77,1.01c0.68-0.04,1.07-0.57,1.3-1.16
								C518.8,224.77,518.7,224.73,518.64,224.77z"/>
							<g>
								<g>
									<path class="st9" d="M517.58,219.98c-1.16,0.99-2.52,1.32-3.85,1.19c-0.6-0.05-1.19-0.21-1.75-0.44
										c-0.11-0.04-0.22-0.08-0.32-0.14c-0.1-0.04-0.19-0.08-0.3-0.14c-0.16-0.07-0.21-0.24-0.19-0.4l0-0.01
										c0.02-0.05,0.03-0.09,0.06-0.14c0,0,0,0,0-0.01l0.04-0.12c0.29-1.1,0.89-2.72,0.89-2.72c-0.46,0.08-2.75,0.39-2.55-0.17
										c1.68-4.62,3.55-9.76,6.2-14.01c0.08-0.14,0.31-0.04,0.25,0.11c-1.44,4.51-3.66,8.73-5.18,13.23
										c0.72-0.05,1.91-0.19,2.48-0.01c0.14,0.09-1.21,3.12-1.3,3.62c0,0-0.01,0.02-0.01,0.05c1.76,0.78,3.3,0.63,5.44-0.06
										C517.61,219.76,517.69,219.89,517.58,219.98z"/>
								</g>
							</g>
							<g>
								<path class="st9" d="M512.64,220.9c0,0,0.78,1.59,2.1,2.36c0.49,0.29,1.04,0.46,1.66,0.42c1.27-0.09,1.51-1.2,1.46-2.19
									c-0.03-0.82-0.27-1.56-0.27-1.56S515.52,221.25,512.64,220.9z"/>
								<path class="st11" d="M514.75,223.26c0.49,0.29,1.04,0.46,1.66,0.42c1.27-0.09,1.51-1.2,1.46-2.19
									C516.54,221.38,515.09,222.02,514.75,223.26z"/>
							</g>
						</g>
						<path class="st12" d="M537.51,218.38l-0.15,5.14c-1.94,5.24-4.35,9.72-6.69,11.43c-8.37,6.12-20.94,5.46-25.87-4.33
							c-1.67-3.34-1.71-8.87-0.77-14.79c0.16,1.52,0.94,3.54,3.07,4.11c2.14,0.55,5.55-2.06,5.55-2.06l2.61,0.04
							c0,0,1.87,2.87,8.05,3.27c6.18,0.42,11.28-5.63,11.28-5.63L537.51,218.38z"/>
						<path class="st9" d="M538.03,221.64c-3.92-0.37-3.67-8.25-3.48-12.08c0.09-1.66,1.54-7.54,1.21-8.79
							c-0.55-2.13-2.64-4.33-4.66-4.33c-2.02,0-12.39-1.03-14.02-1.59c-1.63-0.56-3.53-1.79-4.41-3.39
							c-0.26-0.48-2.53-4.45,2.35-7.14c4.88-2.69,14.85-1.64,17.75,0s8.57,11.27,8.57,11.27s2.91,1.77,4.25,6.56
							C546.95,206.95,541.17,221.93,538.03,221.64z"/>
						<g>
							<path class="st8" d="M534.51,221.74c0,0,5.7-6.3,8.62-4.19c2.92,2.12-1.97,11.67-5.82,12.58c-3.85,0.91-4.76-2.64-4.76-2.64
								L534.51,221.74z"/>
							<path class="st9" d="M541.66,220.26c0.06,0,0.06,0.09,0.01,0.1c-2.71,0.72-4.37,2.94-5.63,5.31c0.89-0.86,2-1.25,3.16-0.18
								c0.06,0.06-0.02,0.15-0.09,0.13c-1.03-0.36-1.81-0.27-2.63,0.49c-0.58,0.54-1.02,1.25-1.47,1.9
								c-0.15,0.22-0.55,0.04-0.43-0.21c0.01-0.02,0.02-0.04,0.03-0.06C534.95,224.43,538.09,220.15,541.66,220.26z"/>
						</g>
					</g>
					<path class="st10" d="M513.53,246.85c0-0.69,0.19-3.51,0.7-4.61c0.5-1.09,22.73-4.54,23.9-3.79c1.17,0.76-0.36,6.98,0.15,7.82
						c0.51,0.84-12.35,13.37-18.42,12.11C513.8,257.13,513.53,246.85,513.53,246.85z"/>
				</g>
				<g>
					<path class="st8" d="M553.41,266.29c8.24,14.92,27.18,72.04,14.28,82.84c-16.02,13.41-65.39,12.17-76.19,12.37
						c-4.71,0.09-6.92-28.99-3.23-32.42c3.69-3.43,52.78-5.59,55.09-8.56c0.95-1.22-8.97-42.99-5.82-60.96
						C540.77,241.1,549.69,259.55,553.41,266.29z"/>
					<g>
						<path class="st10" d="M535.8,252.6c-6.48,15.17,7.51,64.99,5.76,66.36c-1.75,1.37-42.64,2.06-42.64,2.06l4.67,45.08
							c8.26-0.09,62.8-5.16,70.1-19.33c7.3-14.17-7.94-63.53-17.86-82.39C548.61,250.68,540.26,242.16,535.8,252.6z"/>
						<path class="st9" d="M551.49,316.38c-3.29,0.45-6.51,1-9.76,1.43c0.01-0.07,0.02-0.14,0.01-0.22
							c-0.02-0.11-0.04-0.21-0.05-0.32c1.87-1.11,4.17-1.7,6.16-2.33c0.14-0.04,0.12-0.28-0.04-0.27c-1.99,0.2-4.35,0.56-6.31,1.49
							c-2.45-14.8-5.09-29.58-7.87-44.32c-0.01-0.05-0.1-0.04-0.09,0.01c0.46,3.95,0.97,7.89,1.5,11.83
							c-0.63-1.97-1.4-3.93-2.01-5.83c-0.04-0.12-0.21-0.07-0.19,0.05c0.54,3.2,1.11,6.91,2.66,9.8c0.03,0.06,0.08,0.1,0.13,0.12
							c1.37,9.69,2.94,19.35,4.76,28.96c-0.56,0.37-1.05,0.81-1.47,1.33c-4.84,1.31-39.29,1.79-39.86,2.33
							c-0.5,0.47-0.15,3.7,0.16,6.64c0.03,0.25,0.43,0.43,0.41,0.17c-0.13-1.92-0.28-5.5,0.06-5.71c2.17-1.31,35.53,0.88,51.94-4.85
							C551.84,316.64,551.68,316.36,551.49,316.38z"/>
					</g>
					<g>
						<path class="st8" d="M495.85,327.25c0,0-8.65,0.26-10.79,0.46c-2.14,0.2-23.64-4.35-30.45-0.13
							c-4.83,2.99-15.76,16.44-14.67,25.52c0.66,5.47,6.71,5.85,6.71,5.85s0.88,3.34,3.51,4.38c3.27,1.3,5.84-0.21,5.84-0.21
							s0.8,3.23,4.36,4.03c4.3,0.97,6.2-1.57,6.2-1.57s2.57,3.02,6.73,3.37c6.2,0.51,14.6-2.95,15.59-5.44
							c1.62-4.08-5.48-4.25-10.35-3.81c0,0,1.76-0.13,2.11-2.58c0,0,2.77,6.48,17.72,3.69L495.85,327.25z"/>
						<g>
							<path class="st9" d="M474.09,338.46c-3.51,3.57-6,8.54-7.85,13.15c-1.83,4.56-2.76,9.64,0.06,14
								c0.12,0.18,0.42,0.05,0.32-0.16c-2.48-4.99-0.9-10.19,1.21-15c1.82-4.14,3.66-8.22,6.61-11.68
								C474.61,338.57,474.27,338.27,474.09,338.46z"/>
							<path class="st9" d="M464.62,336.53c-5.77,6.29-12.91,17.8-8.73,26.55c0.05,0.1,0.21,0.04,0.18-0.07
								c-2.27-9.64,3.58-18.71,8.81-26.27C464.99,336.59,464.75,336.39,464.62,336.53z"/>
							<path class="st9" d="M455.92,334.11c-3.38,2.93-5.93,7.12-7.92,11.08c-2.15,4.3-3.02,9.05-1.58,13.72
								c0.04,0.12,0.2,0.09,0.19-0.04c-0.92-9.49,3.48-17.53,9.57-24.53C456.33,334.19,456.07,333.98,455.92,334.11z"/>
							<path class="st9" d="M482.19,358.77c-0.23-0.19-0.48-0.37-0.68-0.58c-0.33-0.35-0.67-0.77-0.88-1.23
								c0-0.05,0.02-0.1,0.02-0.14c0.06-1.41-0.46-2.51-1.41-3.5c-0.04-0.04-0.12,0-0.09,0.06c0.58,0.99,0.91,2.24,0.79,3.39
								c-0.09,0.84-0.47,1.47-0.81,2.15c-2.43,0.32-4.76,1.04-6.37,1.84c-0.23,0.12-0.11,0.48,0.15,0.43
								c1.66-0.33,3.82-0.86,6.05-1.21c0.05,0.01,0.1,0.02,0.15-0.01c0.01,0,0.01-0.01,0.02-0.01c3.65-0.54,7.5-0.54,9.75,1.78
								c0.04,0.04,0.1-0.01,0.07-0.06C487.53,359.66,484.96,358.86,482.19,358.77z M480.55,357.47c0.09,0.31,0.22,0.61,0.44,0.92
								c0.08,0.12,0.18,0.25,0.29,0.38c-0.38,0.01-0.75,0.02-1.13,0.05C480.36,358.39,480.48,357.92,480.55,357.47z"/>
						</g>
					</g>
				</g>
			</g>
		</g>
		<g>
			<path class="st13" d="M436.73,329.85c0,6.27-5.07,11.33-11.33,11.33c-0.2,0-0.39,0-0.58-0.01c0,0-19.84,0.04-20.16,0.04
				c-6.26,0-11.33-5.07-11.33-11.33s5.07-11.33,11.33-11.33h19.97c0.26-0.01,0.51-0.03,0.77-0.03
				C431.65,318.52,436.73,323.59,436.73,329.85z"/>
			<g>
				<g id="IaQ7Yo_1_">
					<g>
						<g>
							<path class="st14" d="M404.78,330.54c0.01-0.44,0.17-0.82,0.39-1.18c0.1-0.16,0.21-0.31,0.31-0.47l0.68-0.68
								c0.26-0.19,0.52-0.39,0.8-0.57c1.09-0.73,2.31-1.14,3.59-1.4c2.97-0.59,5.95-0.57,8.92,0.01c1.26,0.25,2.46,0.66,3.54,1.38
								c0.28,0.19,0.55,0.39,0.82,0.59l0.66,0.66c0.16,0.26,0.35,0.51,0.49,0.79c0.12,0.26,0.18,0.55,0.28,0.85
								c-0.1,0.01-0.15,0.02-0.2,0.02c-1.88,0-3.76,0-5.63,0.01c-0.11,0-0.17-0.04-0.23-0.13c-0.36-0.65-0.91-1.01-1.67-1.06
								c-1.7-0.11-3.4-0.11-5.09,0c-0.75,0.05-1.3,0.42-1.66,1.07c-0.04,0.08-0.08,0.13-0.19,0.13c-1.91,0-3.81,0-5.72,0
								C404.85,330.55,404.82,330.55,404.78,330.54z"/>
							<path class="st14" d="M404.77,333.84c0-0.66,0-1.32,0-1.99c0-0.05,0-0.1,0.01-0.14c1.93,0,3.84,0,5.77-0.01
								c-0.01,0.13-0.02,0.28-0.02,0.42c0,0.56,0,1.13,0,1.69c0,0.49-0.24,0.73-0.73,0.73c-1.43,0-2.87,0-4.3,0
								C405.02,334.56,404.77,334.32,404.77,333.84z"/>
							<path class="st14" d="M419.47,333.87c0.01-0.72,0.04-1.45,0.05-2.17c1.85,0,3.77-0.01,5.69-0.01c0,0.03,0.01,0.08,0.01,0.12
								c0,0.67,0,1.35,0,2.02c0,0.46-0.25,0.71-0.7,0.71c-1.45,0-2.9,0-4.35,0C419.73,334.54,419.47,334.3,419.47,333.87z"/>
						</g>
					</g>
				</g>
			</g>
		</g>
	</g>
	<g>
		<g>
			<rect x="58.2" y="2.22" class="st1" width="197.83" height="197.83"/>
		</g>
		<g>
			<path class="st2" d="M75.11,11.15c0,2.23-1.8,4.03-4.03,4.03c-2.23,0-4.03-1.8-4.03-4.03c0-2.23,1.8-4.03,4.03-4.03
				C73.3,7.12,75.11,8.92,75.11,11.15z"/>
			<path class="st3" d="M91.56,11.15c0,2.23-1.8,4.03-4.03,4.03c-2.23,0-4.03-1.8-4.03-4.03c0-2.23,1.8-4.03,4.03-4.03
				C89.76,7.12,91.56,8.92,91.56,11.15z"/>
			<path class="st4" d="M108.02,11.15c0,2.23-1.8,4.03-4.03,4.03s-4.03-1.8-4.03-4.03c0-2.23,1.8-4.03,4.03-4.03
				S108.02,8.92,108.02,11.15z"/>
		</g>
		<line class="st5" x1="58.2" y1="19.99" x2="256.02" y2="19.99"/>
	</g>
	<g>
		<defs>
			<path id="SVGID_3_" d="M365.35,227.31l-20.38,52.96l-77.19-29.71l2.44-6.33c-6.1-2.38-11.83-4.78-13.38-5.44l0.04-0.19
				c-10.15-4.09-38.23-18.4-53.37-38.56h-84.77c0,0.07-0.11,0.09-0.12,0.01v-0.01h-0.01c-0.08,6.12-1.78,12.52-5.69,14.35
				c-3.07,1.43-3.47-2.13-3.53-3.23c-0.03,0.05-0.07,0.08-0.12,0.09c-0.48,1.56-2.42,7.13-6.2,7.38c-3.7,0.24-3.94-4.5-3.92-6.03
				c-0.05,0.03-0.09,0.03-0.12,0.03c-0.53,1.6-2.49,6.73-6.37,6.61c-4.02-0.13-3.49-4.91-3.22-6.42c-0.03,0.04-0.07,0.09-0.09,0.13
				c-0.05,0.08-0.18,0.07-0.23,0.01c-0.93,1.27-3.36,4.08-6.08,3.36c-5.76-1.53,0.75-11.64-0.55-16.29H58.17V2.22H256v192.09
				c1.86,1.13,3.69,2.25,5.46,3.31c0,0,11.41,2.49,16.19,4.68c1.52,0.7,4.05,2.67,6.7,5.14l3.8-9.85L365.35,227.31z"/>
		</defs>
		<clipPath id="SVGID_4_">
			<use xlink:href="#SVGID_3_"  style="overflow:visible;"/>
		</clipPath>
		<g class="st15">
			<g>
				<path class="st9" d="M221.74,120.97c-0.08,0.32-0.4,0.58-0.77,0.51c-0.82-0.2-1.8-0.46-2.91-0.74
					c-0.69-7.11-1.97-12.98-1.83-10.8c0.21,3.16-0.22,7.46-1.03,10.06c-1.28-0.34-4.23-1.14-5.72-1.55
					c1.06-11.78,0.65-20.9,0.08-18.31c-2.31,10.44-3.93,13.52-5.72,16.78c-13.78-3.77-31.8-8.9-44.77-12.87
					c0.32-6.6,0.98-13.63,0.62-13.24c-2.79,2.89-4.75,7.75-5.94,11.6c-4.12-1.29-7.39-2.4-9.35-3.16c0,0,0.57-5.45,0.93-7.19
					c0.9-4.43,2.72-8.68,5.26-12.42c2.64-3.85,6.12-6.88,9.52-10.04c0.03-0.03,0.05-0.05,0.08-0.07c0-0.01,0.01-0.01,0.03-0.03
					c2.33-2.19,4.23-4.4,5.8-6.88c0.01-0.01,0.03-0.03,0.04-0.05c1.1-1.76,2.05-3.65,2.88-5.79c2.84-7.36,9.29-12.45,17.4-12.03
					c19.65-9.49,30.62,1.8,32.05,12.87c0.13,1.08,0.22,2.29,0.26,3.59v0.04c0.16,4.83-0.22,10.92-0.31,15.68
					c-0.01,0.01,0,0.03,0,0.03c-0.01,0.01-0.01,0.03,0,0.05v0.01c-0.03,2.27,0,4.23,0.19,5.6
					C219.79,91.67,226.66,98.78,221.74,120.97z"/>
				<path class="st9" d="M182.46,45.8c-5.66,0.85-9.74,3.42-12.14,8.69c-1.4,3.07-2.56,6.13-4.76,8.75
					c-2.28,2.7-5.18,4.58-8.13,6.44c-4.7,2.96-8.34,6.23-10.48,11.47c-2.18,5.32-3.82,11.89-3.38,17.65c0,0.03,0.05,0.03,0.05,0
					c-0.05-5.71,2.04-12.92,4.64-18.05c2.85-5.64,7.56-8.25,12.58-11.62c3.99-2.68,7.03-6.07,9.02-10.48
					c1.18-2.61,1.97-5.46,3.9-7.65c2.3-2.62,5.64-3.68,8.9-4.53C183.08,46.35,182.89,45.73,182.46,45.8z"/>
				<path class="st9" d="M224.3,93.74c-2.21-5.4-4.76-10.21-5.23-16.18c-0.42-5.44,0.03-10.9-0.43-16.34c-0.01-0.09-0.14-0.1-0.14,0
					c0.37,9.52-1.63,18.37,2.1,27.47c2.03,4.95,4.15,9.61,4.86,14.99c0.75,5.65,0.17,11.11-1.3,16.59
					c-0.05,0.19,0.21,0.26,0.28,0.09C227.94,111.84,227.78,102.22,224.3,93.74z"/>
			</g>
			<g>
				<path class="st13" d="M187.34,107.83c-5.73,9.91-2.58,51.08,9.08,79.93c12.18,30.14,59.01,51.1,63.85,52.02
					c13.29,2.53,26.03-23.22,20.68-29.12c-6.67-7.36-49.95-27.98-57.13-41.66c-1.83-3.49-11.95-24.36-19.04-44.08
					C200.7,113.56,191.37,100.85,187.34,107.83z"/>
				<g>
					<path class="st13" d="M256.83,238.81c3.1,1.3,23.06,9.66,28.84,10.71c5.78,1.05,22.65,2.86,23.9-1.48
						c1.25-4.35-3.64-5.27-3.64-5.27s7.24-0.36,8.11-4.85c0.86-4.49-6.8-5.68-6.8-5.68s7.41-0.91,7.95-5.46
						c0.54-4.54-7.36-4.45-7.36-4.45s6.81-0.52,5.68-4.45c-1.36-4.73-13.81-2.35-20.11-3.99c-1.43-0.37-28.45-9.6-28.45-9.6
						L256.83,238.81z"/>
					<g>
						<path class="st9" d="M308.13,223.09c-9.16,1.73-13.47,0.9-22.01-2.48c-0.17-0.07-0.3,0.17-0.13,0.25
							c8.06,4.07,13.31,5.89,22.25,2.67C308.67,223.37,308.57,223.01,308.13,223.09z"/>
						<path class="st9" d="M307.59,232.84c-9.67,0.96-14.35,0.1-23.55-2.78c-0.13-0.04-0.21,0.18-0.08,0.23
							c8.79,3.58,14.07,5.28,23.61,3.05C307.99,233.23,308.03,232.8,307.59,232.84z"/>
						<path class="st9" d="M305.1,243.36c-9.43,0.26-14.61-0.46-23.18-4.41c-0.2-0.09-0.36,0.19-0.16,0.31
							c8.35,4.87,14.8,5.82,23.32,4.39C305.65,243.55,305.69,243.35,305.1,243.36z"/>
					</g>
				</g>
				<g>
					<path class="st16" d="M339.55,278.19l-66.35-25.53c-2.99-1.15-4.49-4.51-3.33-7.51l16.21-42.13c1.15-2.99,4.51-4.49,7.51-3.33
						l66.35,25.53c2.99,1.15,4.49,4.51,3.33,7.51l-16.21,42.13C345.9,277.84,342.54,279.34,339.55,278.19z"/>
					<g>
						<path class="st17" d="M291.83,203.83c0,0,20.32,35.59,24.62,37.19c4.73,1.75,42.66-11.3,42.66-11.3"/>
						<line class="st17" x1="277.87" y1="240.12" x2="308.77" y2="232.95"/>
						<line class="st17" x1="344.98" y1="266.15" x2="326.99" y2="240.02"/>
					</g>
				</g>
				<g>
					<path class="st13" d="M261.47,197.63c0,0,11.42,2.48,16.19,4.68c4.77,2.2,19.55,16.94,16.55,20.31
						c-3.88,4.35-14.08-2.47-18.65-6.47c0,0-8.96,10.08-17.34,6.77C249.84,219.6,261.47,197.63,261.47,197.63z"/>
					<path class="st9" d="M292.75,223.47c-6.4,1.42-12.05-4.21-16.77-7.76c-0.36-0.27-0.7-0.08-0.85,0.24
						c-4.04,3.98-10.89,8.41-16.77,7.31c-0.17-0.03-0.24,0.21-0.07,0.26c6.14,2.03,13.23-1.77,17.37-6.41
						c4.78,3.71,10.69,9.11,17.1,6.42C292.81,223.52,292.8,223.46,292.75,223.47z"/>
				</g>
				<g>
					<path class="st18" d="M224.6,166.37c-0.59,1.43-9.62,5.84-18.21,9.64c-0.3,0.13-0.6,0.26-0.89,0.4
						c-7.34,3.21-14.12,5.87-14.72,5.67c-0.92-0.32-4.99-20.88-6.8-40.72c-0.69-7.7-1.05-15.27-0.75-21.53
						c0.02-0.49,0.05-0.96,0.08-1.43c1.18-17.83,9.23-16.7,16.64-4.75C207.35,125.59,225.73,163.68,224.6,166.37z"/>
					<path class="st9" d="M221.9,161.02c-5.09,1.97-26.18,10.86-31.14,13.89c-0.13,0.08-0.05,0.31,0.11,0.26
						c5.19-1.58,25.91-10.99,31.11-13.66C222.39,161.3,222.34,160.85,221.9,161.02z"/>
				</g>
				<path class="st9" d="M205.5,176.41c-7.34,3.21-14.12,5.87-14.72,5.67c-0.92-0.32-4.99-20.88-6.8-40.72
					c-0.69-7.7-1.05-15.27-0.75-21.53L205.5,176.41z"/>
			</g>
			<g>
				<g>
					<path class="st18" d="M207.2,143.08c-0.64,9.03-8.82,14.4-8.82,14.4s0.63,9.82,0.85,20.08v0.01c0.2,9.91,0.01,20.21-1.5,22.48
						h-76.97c-0.24-0.75-0.35-1.8-0.33-3.12l0.01-0.01c-0.01-0.02-0.01-0.04,0-0.06c0.01-0.7,0.05-1.49,0.13-2.34
						c0.03-0.36,0.07-0.73,0.12-1.12v-0.05c2-17.52,15.19-58.99,23.53-72.93c0.55-0.92,1.1-1.79,1.67-2.61
						c2.23-3.25,4.86-6.67,7.72-9.86c3.89-4.32,8.23-8.19,12.67-10.54c0.01,0.01,0.01,0.01,0.02,0c0.13-0.07,0.25-0.12,0.38-0.19
						c0.01-0.01,0.03-0.02,0.04-0.03l-0.01,0.02c6.45-3.27,13.1-3.3,18.87,3.15c2.83,3.16,8.9,12.46,13.89,21.84
						C203.91,130.52,207.49,138.89,207.2,143.08z"/>
					<path class="st9" d="M165.65,153.82c3.76,2,7.2,4.16,11.61,4.27c4.45,0.12,8.85-1.27,13.2-2.01c0.13-0.02,0.19,0.16,0.06,0.2
						c-4.82,1.44-9.71,3.56-14.85,3.11c-4.03-0.35-7.39-2.46-10.42-5.02C164.94,154.11,165.31,153.64,165.65,153.82z"/>
					<path class="st9" d="M185.87,158.6c3.16-0.78,6.65-0.92,9.89-1.06c0.14-0.01,0.18,0.22,0.04,0.25
						c-3.19,0.62-6.61,1.3-9.85,1.28C185.68,159.07,185.6,158.66,185.87,158.6z"/>
					<path class="st9" d="M197.75,157c6.15-4.65,9.34-9.71,8.17-17.89c-0.53-3.7-2.86-9.46-6.44-16.83
						c-0.07-0.15,0.13-0.27,0.22-0.13c4.57,7.6,7.22,14.55,7.52,19.1c0.45,6.77-3.2,12.55-8.56,16.28
						c0.13,2.09,1.12,19.09,1.06,21.18c-0.01,0.24-0.21,0.31-0.28,0.07C198.84,176.7,197.59,157.12,197.75,157z"/>
				</g>
				<path class="st9" d="M166.72,97.19l-46.28,99.73l-0.01,0.01c0-0.02,0-0.05,0.01-0.07c0.09-1.03,0.17-2.19,0.25-3.46v-0.05
					c2-17.52,15.19-58.99,23.53-72.93c0.55-0.92,1.1-1.79,1.67-2.61c2.23-3.25,4.86-6.67,7.72-9.86c3.89-4.32,8.23-8.19,12.67-10.54
					c0.01,0.01,0.01,0.01,0.02,0C166.47,97.39,166.61,97.31,166.72,97.19z"/>
			</g>
			<g>
				<path class="st13" d="M163.61,97.89c-15.22,0.66-74.07,33.31-92.62,69.99c-7.91,15.64-2.14,32.24-0.45,32.17
					c4.45-0.18,48.06-4.07,46.59-8.42c-1.31-3.87-5.82-9.5-7.71-14.11c-2.25-5.51,32.32-41.16,40.73-48.23
					C158.56,122.23,175.4,97.38,163.61,97.89z"/>
				<g>
					<path class="st13" d="M87.74,186.83c3.41-0.45,4.76,2.61,4.76,2.61s1.73-3.85,5.24-3.84c1.8,0.01,3.38,2.89,3.38,2.89
						s1.52-3.03,4.64-2.82c2.48,0.16,3.69,3.03,3.69,3.03s2.81-2.22,5.29-1.25c5.03,1.98,5.9,23.33-1.83,26.95
						c-3.6,1.69-3.53-3.54-3.53-3.54s-1.92,7.49-6.31,7.79c-4.4,0.29-3.9-6.49-3.9-6.49s-1.92,7.24-6.51,7.09
						c-4.78-0.16-3.12-6.86-3.12-6.86s-3.02,4.88-6.51,3.96c-5.76-1.53,0.76-11.63-0.55-16.28H70.53
						C70.53,200.05,79.23,187.94,87.74,186.83z"/>
					<path class="st13" d="M115.36,192.99c4.81,0.79,9.26-5.85,13.97-5.76c6.37,0.13,2.32,10.89-6.46,12.79l-7.49,0.02
						L115.36,192.99z"/>
					<g>
						<path class="st9" d="M109.7,189.12c-0.01-0.07,0.09-0.1,0.11-0.03c2,6.95,2.06,15.21-0.41,22.05
							c-0.08,0.22-0.48,0.19-0.44-0.07C110.17,203.53,110.63,196.74,109.7,189.12z"/>
						<path class="st9" d="M101.16,188.39c-0.01-0.08,0.13-0.1,0.15-0.01c2.02,7.18,1.84,16.47-1.94,24.03
							c-0.13,0.26-0.51,0.36-0.38,0.05C101.12,207.24,102.03,195.24,101.16,188.39z"/>
						<path class="st9" d="M89.09,212.84c3.35-7.38,3.99-15.1,3.51-23.11c-0.01-0.1,0.14-0.1,0.17-0.02c1.3,3.86,1.08,9,0.56,12.98
							c-0.49,3.82-1.71,7.16-3.98,10.26C89.26,213.08,89.02,213,89.09,212.84z"/>
					</g>
					<g>
						<path class="st9" d="M74.51,194.9c-0.08,0.08,0.04,0.2,0.13,0.13c3.63-3.14,14.27-12.28,17.97-5.3
							c0.13,0.24,0.37,0.35,0.29,0.03C91.74,185.37,87.17,182.71,74.51,194.9z"/>
						<path class="st9" d="M96.63,185.17c-2.09,0.47-3.87,2.54-4.06,4.66c-0.01,0.16,0.24,0.23,0.3,0.08
							c0.64-1.5,1.34-2.81,2.85-3.59c2.31-1.19,4.15,0.36,5.35,2.27c0.11,0.17,0.39,0.06,0.34-0.14
							C100.86,186.41,98.78,184.69,96.63,185.17z"/>
						<path class="st9" d="M105.98,185.15c-2.19-0.19-3.94,1.38-4.82,3.17c-0.16,0.32,0.19,0.32,0.22,0.3
							c1.32-1.33,2.63-2.94,4.72-2.54c1.59,0.31,2.51,1.61,3.46,2.77c0.09,0.11,0.23-0.01,0.21-0.12
							C109.43,186.85,107.9,185.31,105.98,185.15z"/>
						<path class="st9" d="M116.48,189.06c-1.25-3.2-5.39-3.1-6.85-0.25c-0.02,0.04,0.03,0.08,0.07,0.05
							c1.45-1.38,4.66-2.22,6.74,0.29C116.54,189.29,116.53,189.21,116.48,189.06z"/>
						<path class="st9" d="M112.63,186.96c-0.07,0.02,0.17,0.58,0.24,0.58c4.56-0.07,4.89,8.67,5.76,12.52
							c0.02,0.07,0.12,0.05,0.12-0.02C118.99,196.97,118.12,185.69,112.63,186.96z"/>
					</g>
				</g>
				<g>
					<path class="st18" d="M87.56,141.97c0.56,0.84,29.7,24.9,31.51,24.4c1.81-0.5,25.53-24.73,39.66-44.42
						c14.13-19.68,18.34-34.49-15.82-18.17S86.66,140.62,87.56,141.97z"/>
					<path class="st9" d="M121.38,160.06c-4.04-3.67-22.39-19.4-27.32-22.49c-0.13-0.08-0.3,0.09-0.18,0.21
						c3.74,3.93,22.38,19.11,27.11,22.56C121.35,160.62,121.72,160.37,121.38,160.06z"/>
				</g>
			</g>
			<path class="st13" d="M189.7,101.74c0,0,7.72,6.47,11.98,14.79c0,0-4.51,7.1-20.31,3.78c-11.88-2.49-28.95-20.67-28.95-20.67
				s15.25-6.97,25.71-5.02C183.27,95.59,189.7,101.74,189.7,101.74z"/>
			<g>
				<g>
					<path class="st13" d="M185.09,112.22c3.21,0.17,4.31-7.49,4.61-10.34c0.06-0.65,0.09-1.05,0.09-1.05l0.11-0.23l0.32-0.7
						l5.33-11.45l-12.27-12.29l-1.79-1.67c0,0-1.39,3.59-3.02,7.91c-0.09,0.22-0.18,0.45-0.26,0.67c-0.24,0.6-0.47,1.22-0.7,1.85
						c-0.18,0.46-0.35,0.93-0.51,1.43c-0.18,0.5-0.34,1-0.51,1.5c-1.64,4.97-2.91,10.2-2.91,10.85
						C173.59,100.21,178.34,111.87,185.09,112.22z"/>
					<path class="st9" d="M189.7,101.88c0.06-0.65,0.09-1.05,0.09-1.05l0.11-0.23l0.32-0.7l5.33-11.45l-12.27-12.29l-1.79-1.67
						c0,0-1.39,3.59-3.02,7.91C178.85,87.34,180.72,99.09,189.7,101.88z"/>
				</g>
				<g>
					<path class="st13" d="M214.29,74.75c-3.17,22.15-17.71,21.97-21.57,22.06c-4.38,0.1-19.01-3.31-18.15-25.66
						c0.87-22.36,12.17-27.88,22.15-26.98C206.72,45.08,217.46,52.6,214.29,74.75z"/>
					<g>
						<path class="st9" d="M210.69,70.04c-0.5-0.17-0.93-0.41-1.41-0.63c-0.54-0.25-0.99-0.39-1.32-0.92
							c-0.17-0.28-0.05-0.76,0.21-0.95c0.6-0.45,1.34-0.31,2-0.04c0.72,0.29,1.19,0.71,1.56,1.39
							C212.09,69.54,211.35,70.26,210.69,70.04z"/>
						<path class="st9" d="M195.45,67.24c0.53,0.05,1.02,0.01,1.55,0.01c0.59,0,1.07,0.05,1.58-0.29c0.27-0.19,0.36-0.67,0.2-0.95
							c-0.36-0.66-1.09-0.84-1.8-0.86c-0.77-0.03-1.38,0.15-2,0.62C194.38,66.22,194.76,67.17,195.45,67.24z"/>
						<g>
							<g>
								<path class="st9" d="M197.18,73.39c0-0.06-0.13,0.05-0.14,0.11c-0.24,1.5-0.76,3.19-2.21,3.43c-0.04,0.01-0.05,0.08,0,0.09
									C196.52,77.09,197.19,74.85,197.18,73.39z"/>
								<path class="st9" d="M196.14,71.57c-2.37-0.64-3.48,4.15-1.29,4.74C197.02,76.9,198.13,72.11,196.14,71.57z"/>
							</g>
							<path class="st9" d="M195.14,71.6c-0.48,0.17-1,0.56-1.52,0.49c-0.6-0.08-0.92-0.68-1.19-1.25
								c-0.03-0.06-0.08-0.03-0.09,0.04c-0.23,0.92-0.09,1.94,0.86,2.3c0.87,0.33,1.7-0.33,2.14-1.2
								C195.43,71.82,195.34,71.53,195.14,71.6z"/>
						</g>
						<g>
							<g>
								<path class="st9" d="M206.63,74.87c0.03-0.05,0.1,0.1,0.08,0.16c-0.4,1.47-0.62,3.22,0.61,4.03
									c0.04,0.03,0.02,0.1-0.03,0.08C205.71,78.52,206.02,76.19,206.63,74.87z"/>
								<path class="st9" d="M208.33,73.64c2.43,0.39,1.47,5.21-0.78,4.85C205.33,78.13,206.29,73.31,208.33,73.64z"/>
							</g>
							<path class="st9" d="M209.27,74.15c0.33,0.33,0.61,0.87,1.06,0.99c0.52,0.14,1.01-0.3,1.45-0.74c0.05-0.04,0.08,0,0.06,0.07
								c-0.16,0.93-0.65,1.83-1.57,1.83c-0.84,0-1.28-0.91-1.31-1.87C208.95,74.25,209.14,74.02,209.27,74.15z"/>
						</g>
						<path class="st9" d="M195.27,84.94c0.25,0.44,0.47,1.01,0.99,1.21c0.5,0.19,1.16,0.12,1.68,0.07
							c0.05-0.01,0.08,0.06,0.04,0.09c-0.54,0.46-1.44,0.58-2.08,0.27c-0.63-0.3-0.8-0.97-0.79-1.62
							C195.11,84.88,195.23,84.88,195.27,84.94z"/>
						<g>
							<path class="st9" d="M202.67,80.93c0,0-0.18,2.29-0.41,3.34c-0.02,0.1-0.29,0.09-0.65,0.03c-0.02,0-0.03,0.01-0.04-0.01
								c-1.91-0.12-3.64-1.17-4.43-2.92c-0.05-0.12,0.11-0.2,0.19-0.11c1.16,1.32,2.63,1.91,4.26,2.3c0.14-0.27,0.18-3.93,0.35-3.91
								c0.58,0.08,1.63,0.71,2.26,1.06c0.51-4.76,0.26-9.56,0.85-14.29c0.02-0.17,0.27-0.17,0.29-0.01
								c0.62,5.01,0.15,10.5-0.26,15.43C205.04,82.46,203.05,81.2,202.67,80.93z"/>
						</g>
						<g>
							<path class="st9" d="M201.71,83.47c0,0-1.19,1.31-2.68,1.67c-0.55,0.14-1.13,0.15-1.71-0.07c-1.19-0.45-1.11-1.58-0.79-2.52
								c0.26-0.77,0.7-1.42,0.7-1.42S198.85,83,201.71,83.47z"/>
							<path class="st11" d="M199.02,85.15c-0.55,0.14-1.13,0.15-1.71-0.07c-1.19-0.45-1.11-1.58-0.79-2.52
								C197.83,82.83,199.04,83.86,199.02,85.15z"/>
						</g>
					</g>
					<path class="st9" d="M175.45,69.38c2.39,0.52,10.34-4.22,13.73-15.52c0,0-3.75,9.94-4.93,11.21
						c-1.19,1.28,4.45-2.67,7.31-11.75c0,0,4.04,5.09,8.02,7.52c3.98,2.43,6.64,3.14,7.04,2.91c0.4-0.23-5.4-4.02-6.56-6.49
						c0,0,9.99,8.59,15.18,10.49c0.6,0.22,4.89-12.19-1.8-19.85c-6.69-7.66-21.3-5.55-25.74-3.16c0,0-4.26-0.57-10.43,4.23
						C171.1,53.79,172.88,68.82,175.45,69.38z"/>
					<g>
						<g>
							<path class="st13" d="M177.77,71.62c0,0-3.17-7.91-6.65-6.93c-3.48,0.98-2.2,11.67,1.11,13.86c3.31,2.19,5.4-0.83,5.4-0.83
								L177.77,71.62z"/>
							<path class="st9" d="M171.56,67.75c-0.06-0.02-0.09,0.06-0.04,0.09c2.3,1.62,3.09,4.29,3.46,6.95
								c-0.54-1.12-1.45-1.87-2.91-1.27c-0.08,0.03-0.04,0.15,0.04,0.15c1.09,0.02,1.8,0.37,2.31,1.37c0.36,0.71,0.53,1.53,0.72,2.3
								c0.07,0.25,0.5,0.23,0.48-0.05c0-0.02-0.01-0.04-0.01-0.06C176.43,74,174.96,68.88,171.56,67.75z"/>
						</g>
					</g>
				</g>
			</g>
		</g>
	</g>
	<g>
		<g>
			<path class="st16" d="M95.92,111.44c0,3.2-2.6,5.81-5.81,5.81l-59.92,0.01H7.29c-3.21,0-5.81-2.6-5.81-5.81l-0.01-55l94.44-0.02
				v12.59L95.92,111.44z"/>
			<path class="st9" d="M1.47,56.44h94.44L52.47,21.97c-2.73-2.82-7.27-2.76-9.92,0.13L1.47,56.44z"/>
			<path class="st9" d="M1.47,56.44c0,0,41.13,35.03,47.98,35.03s46.46-35.04,46.46-35.04L1.47,56.44z"/>
			<g>
				<path class="st1" d="M9.6,63.59V30.36c0-2.5,2.02-4.52,4.52-4.52h69.94c2.5,0,4.52,2.02,4.52,4.52v32.4
					c0,0-33.77,28.71-39.13,28.71C44.54,91.48,9.6,63.59,9.6,63.59z"/>
				<g>
					<rect x="19.51" y="36.94" class="st3" width="29" height="1.22"/>
					<rect x="19.51" y="43.51" class="st3" width="59.16" height="1.22"/>
					<rect x="19.51" y="50.08" class="st3" width="59.16" height="1.22"/>
					<rect x="19.51" y="56.65" class="st3" width="44.87" height="1.22"/>
					<rect x="19.51" y="63.21" class="st3" width="59.16" height="1.22"/>
					<rect x="19.51" y="69.78" class="st3" width="27.79" height="1.22"/>
				</g>
			</g>
			<g>
				<path class="st17" d="M4.47,59.46c0,0,39.32,32.09,44.98,32.02c6.24-0.07,43.88-32.78,43.88-32.78"/>
				<line class="st17" x1="4.47" y1="107.59" x2="36.99" y2="85.56"/>
				<line class="st17" x1="93.59" y1="107.82" x2="61.19" y2="85.63"/>
			</g>
		</g>
		<g>
			<line class="st17" x1="87.42" y1="18.03" x2="87.42" y2="13.51"/>
			<line class="st17" x1="81.52" y1="20.48" x2="78.32" y2="17.28"/>
			<line class="st17" x1="79.07" y1="26.39" x2="74.55" y2="26.39"/>
			<line class="st17" x1="81.52" y1="32.29" x2="78.32" y2="35.49"/>
			<line class="st17" x1="87.42" y1="34.74" x2="87.42" y2="39.26"/>
			<line class="st17" x1="93.33" y1="32.29" x2="96.53" y2="35.49"/>
			<line class="st17" x1="95.78" y1="26.39" x2="100.3" y2="26.39"/>
			<line class="st17" x1="93.33" y1="20.48" x2="96.53" y2="17.28"/>
		</g>
	</g>
</g>
</svg>
