<?xml version="1.0" encoding="utf-8"?>
<!-- Generator: Adobe Illustrator 23.0.5, SVG Export Plug-In . SVG Version: 6.00 Build 0)  -->
<svg version="1.1" id="Layer_1" xmlns="http://www.w3.org/2000/svg" xmlns:xlink="http://www.w3.org/1999/xlink" x="0px" y="0px"
	 viewBox="0 0 581 369" style="enable-background:new 0 0 581 369;" xml:space="preserve">
<style type="text/css">
	.st0{fill:none;}
	.st1{fill:#D1FAE5;}
	.st2{fill:none;stroke:#100E3A;stroke-linecap:round;stroke-linejoin:round;stroke-miterlimit:10;}
	.st3{fill:#10B981;}
</style>
<g id="BACKGROUND">
</g>
<g id="Capa_4">
</g>
<g>
	<g>
		<g>
			<path class="st0" d="M279.8,186C279.8,186,279.8,186,279.8,186"/>
		</g>
	</g>
</g>
<g>
	<g>
		<g>
			<path class="st0" d="M279.8,186C279.8,186,279.8,186,279.8,186"/>
		</g>
	</g>
</g>
<g>
	<path class="st1" d="M373,341.8L103.9,238.3c-12.1-4.7-18.2-18.3-13.5-30.5L156.2,37c4.7-12.1,18.3-18.2,30.5-13.5L455.7,127
		c12.1,4.7,18.2,18.3,13.5,30.5l-65.7,170.9C398.8,340.4,385.2,346.5,373,341.8z"/>
	<g>
		<path class="st2" d="M179.5,40.2c0,0,82.4,144.3,99.9,150.8c19.2,7.1,173-45.8,173-45.8"/>
		<line class="st2" x1="122.9" y1="187.4" x2="248.2" y2="158.3"/>
		<line class="st2" x1="395.1" y1="293" x2="322.1" y2="187"/>
	</g>
</g>
<path class="st3" d="M506.1,14.5L363.7,156.9l-52.3-52.3c-2.5-2.5-6.6-2.5-9.2,0l-15.3,15.3c-2.5,2.5-2.5,6.6,0,9.2l72.2,72.2
	c2.5,2.5,6.6,2.5,9.2,0L530.6,39c2.5-2.5,2.5-6.6,0-9.2l-15.3-15.3C512.7,12,508.6,12,506.1,14.5z"/>
</svg>
